<!-- IDC (Insulation Displacement Connector) symbol -->
<svg xmlns="http://www.w3.org/2000/svg" viewBox="0 0 40 30" width="40" height="30">
  <g id="idc">
    <rect x="2" y="5" width="36" height="20" fill="none" stroke="black" stroke-width="0.8"/>
    <!-- IDC teeth pattern -->
    <path d="M 8 5 L 8 10 L 12 10 L 12 5" fill="none" stroke="black" stroke-width="0.4"/>
    <path d="M 16 5 L 16 10 L 20 10 L 20 5" fill="none" stroke="black" stroke-width="0.4"/>
    <path d="M 24 5 L 24 10 L 28 10 L 28 5" fill="none" stroke="black" stroke-width="0.4"/>
    <path d="M 32 5 L 32 10 L 36 10 L 36 5" fill="none" stroke="black" stroke-width="0.4"/>
    <!-- Bottom teeth -->
    <path d="M 8 25 L 8 20 L 12 20 L 12 25" fill="none" stroke="black" stroke-width="0.4"/>
    <path d="M 16 25 L 16 20 L 20 20 L 20 25" fill="none" stroke="black" stroke-width="0.4"/>
    <path d="M 24 25 L 24 20 L 28 20 L 28 25" fill="none" stroke="black" stroke-width="0.4"/>
    <path d="M 32 25 L 32 20 L 36 20 L 36 25" fill="none" stroke="black" stroke-width="0.4"/>
  </g>
</svg>
